<!--?xml version="1.0" standalone="no"?-->
              <svg id="sw-js-blob-svg" viewBox="0 0 100 100" xmlns="http://www.w3.org/2000/svg" version="1.1">
                    <defs> 
                        <linearGradient id="sw-gradient" x1="0" x2="1" y1="1" y2="0">
                            <stop id="stop1" stop-color="rgba(74.477, 55, 248, 1)" offset="0%"></stop>
                            <stop id="stop2" stop-color="rgba(31, 120.584, 251, 1)" offset="100%"></stop>
                        </linearGradient>
                    </defs>
                <path fill="url(#sw-gradient)" d="M27.2,-32.3C34.3,-26.6,38.2,-17,38.1,-8.2C37.9,0.7,33.6,8.8,28.3,14.9C23.1,20.9,16.8,24.9,9.5,28.5C2.3,32.2,-5.9,35.5,-13.5,34.1C-21.1,32.7,-28.1,26.4,-33.1,18.7C-38.1,10.9,-41.1,1.5,-39.2,-6.5C-37.3,-14.6,-30.4,-21.3,-23.1,-27C-15.7,-32.7,-7.9,-37.4,1.1,-38.7C10.1,-40,20.2,-38.1,27.2,-32.3Z" width="100%" height="100%" transform="translate(50 50)" stroke-width="0" style="transition: 0.3s;"></path>
              </svg>